<svg xmlns="http://www.w3.org/2000/svg" width="15" height="20" viewBox="0 0 15 20">
    <g fill="none" fill-rule="evenodd" stroke-linecap="round" stroke-linejoin="round">
        <g stroke="#FED29F" stroke-width=".7">
            <g>
                <g>
                    <path d="M0 18.62v-4.642c0-1.988 1.62-3.6 3.616-3.6H9.55c1.996 0 3.616 1.612 3.616 3.6v4.642M2.712 18.62L2.712 15.02M9.945 18.62L9.945 15.02M4.536 1.15h-.657c-.42 0-.759.338-.759.754v3.267c0 1.905 1.55 3.448 3.463 3.448s3.463-1.543 3.463-3.448V1.193C10.046.535 9.51 0 8.847 0H6.585c-.371 0-.726.147-.99.409l-.521.518c-.143.143-.336.222-.538.222z" transform="translate(-44 -229) translate(29 163) translate(16.204 67)"/>
                    <path d="M4.764 1.186l.917.913c.207.206.487.321.78.321h1.784c.304 0 .601.104.84.293l.606.48c.232.184.366.462.366.756v1.125M3.195 5.216l1.13-1.125c.187-.186.292-.439.292-.702V1.424M9.59 10.524c-.302 1.025-1.613 1.796-3.182 1.796-1.57 0-2.879-.771-3.181-1.796" transform="translate(-44 -229) translate(29 163) translate(16.204 67)"/>
                </g>
            </g>
        </g>
    </g>
</svg>
