<svg xmlns="http://www.w3.org/2000/svg" width="23" height="23" viewBox="0 0 23 23">
    <g fill="none" fill-rule="evenodd" stroke-linecap="round" stroke-linejoin="round">
        <g stroke="#030303" stroke-width="1.008">
            <g>
                <g>
                    <path d="M.018 15.136l1.108 4.544c.073.302.35.507.652.477 2.916-.287 16.948-2.494 17.23-18.4.005-.287-.182-.546-.451-.624L14.777.025c-.308-.092-.633.077-.747.386l-1.687 4.618c-.096.263-.01.56.208.729l1.955 1.505c.24.184.319.516.183.79-.72 1.442-3.126 5.746-6.868 7.1-.25.088-.528-.01-.687-.226l-1.507-2.063c-.164-.225-.453-.312-.71-.213L.401 14.39c-.294.113-.459.434-.383.746z" transform="translate(-77 -87) translate(65 76) translate(12.96 12.24)"/>
                    <path d="M13.968.642C12.847.227 11.634 0 10.368 0 4.642 0 0 4.642 0 10.368c0 1.387.272 2.71.767 3.92m4.79 5.266c1.437.755 3.074 1.182 4.811 1.182 5.726 0 10.368-4.642 10.368-10.368 0-2.242-.711-4.317-1.92-6.013" transform="translate(-77 -87) translate(65 76) translate(12.96 12.24)"/>
                </g>
            </g>
        </g>
    </g>
</svg>
