<?xml version="1.0" encoding="UTF-8"?>
<svg width="116px" height="123px" viewBox="0 0 116 123" version="1.1" xmlns="http://www.w3.org/2000/svg" xmlns:xlink="http://www.w3.org/1999/xlink">
    <title>Group 34 Copy</title>
    <defs>
        <linearGradient x1="49.9876496%" y1="41.1114267%" x2="49.9876496%" y2="113.908728%" id="linearGradient-1">
            <stop stop-color="#A41A16" offset="12.25%"></stop>
            <stop stop-color="#65160E" offset="100%"></stop>
        </linearGradient>
    </defs>
    <g id="Fab." stroke="none" stroke-width="1" fill="none" fill-rule="evenodd">
        <g id="Group-34-Copy" transform="translate(-0.000000, 0.000000)">
            <path d="M0,0 L116,0 L116,119.574957 C116,121.059498 114.796541,122.262957 113.312,122.262957 C113.09672,122.262957 112.88222,122.237095 112.673109,122.185927 L58.6388911,108.964026 C58.2191553,108.861319 57.7808447,108.861319 57.3611089,108.964026 L3.3268911,122.185927 C1.88489242,122.538776 0.429880227,121.655847 0.0770304168,120.213848 C0.0258620914,120.004737 -2.63817107e-15,119.790237 0,119.574957 L0,0 L0,0 Z" id="Rectangle-Copy-11" fill="#FED29F"></path>
            <g id="Selectum-Hotels-&amp;-Resorts" transform="translate(24.259199, 11.315041)">
                <g id="XMLID_106_" transform="translate(24.253632, 17.515286)" fill="url(#linearGradient-1)" fill-rule="nonzero">
                    <path d="M19.3686068,0.279696175 C19.3686068,0.151553814 19.2632289,0.0465190918 19.1346678,0.0465190918 C19.0819789,0.0465190918 19.0335051,0.0675260363 18.995569,0.0969357585 L18.9934614,0.094835064 C18.1904818,0.647317703 16.9364847,1.70396701 16.0070516,1.86151909 C15.5897551,1.9329427 15.1408452,1.8951302 14.7130109,1.84681423 C13.9563975,1.76278645 13.2904091,1.42457465 12.6476039,1.03384548 C12.3630835,0.859487842 12.0574876,0.718741314 11.7561068,0.573793397 C11.3978219,0.399435758 10.7276184,0.105338536 9.53684807,0.0276128418 C9.42725505,0.0171093696 9.31976959,0.00870659183 9.21649924,0.00660589738 C8.25334517,-0.0144010471 6.79913005,-0.0438107693 5.46293819,0.930911453 C5.22899924,1.1010677 4.47660098,1.68506076 3.94971145,2.74591145 C3.60196435,3.4475434 3.42914459,4.22480034 3.42914459,5.07978298 C3.42914459,6.27927951 3.70101959,7.23509548 4.24476959,7.9472309 C4.78851959,8.65936631 5.46715331,9.24335937 6.27856319,9.70131076 C7.08997307,10.1592621 7.9646097,10.5415885 8.90247307,10.8461892 C9.84033645,11.1507899 10.7149731,11.486901 11.526383,11.8524219 C11.5959324,11.8839323 11.6591591,11.9196441 11.726601,11.9511545 C11.8804527,12.0309809 12.036412,12.1108073 12.1881562,12.1948351 C12.2345225,12.2200434 12.2808888,12.2473524 12.3272551,12.2746615 C12.5253655,12.388099 13.2208597,12.8586545 13.5622841,13.2241753 C14.0680981,13.7661545 14.3694789,14.7051649 14.3779091,15.4509115 C14.4010923,17.3205295 12.6033452,19.276276 10.6517463,19.4674392 C8.72754575,19.6565017 6.37129575,18.1019878 5.5936068,16.5138628 C5.05828703,15.4236024 4.5714411,13.4279427 3.84011842,12.5792621 C3.84011842,12.5792621 3.84011842,12.5792621 3.84011842,12.5792621 C3.79796726,12.5330469 3.73684807,12.5057378 3.67151377,12.5057378 C3.54295273,12.5057378 3.43757482,12.6107726 3.43757482,12.7389149 C3.43757482,12.7788281 3.45022017,12.8166406 3.46918819,12.848151 C3.46918819,12.848151 3.46708063,12.8502517 3.46708063,12.8502517 C3.68205156,13.1947656 4.10988586,13.9888281 4.12042366,15.0643837 C4.12253121,15.364783 4.12042366,16.2554774 3.59353412,17.1482726 C3.56192075,17.2007899 3.53873761,17.2386024 3.52187714,17.2638108 C3.28793819,17.6293316 2.82849052,18.0200608 1.90959517,18.8015191 C1.25414459,19.3582031 0.817880051,19.5934809 0.425874237,20.1900781 C0.175074818,20.5724045 0.00647016713,20.9757378 0,21.4504948 C-0.00406762357,21.7298871 0.0823422602,21.9756684 0.223548656,22.1689323 C0.419551562,22.4693316 0.756760865,22.6709983 1.142444,22.6709983 C1.67776377,22.6709983 2.12245854,22.2865712 2.21729866,21.7824045 C2.23205156,21.7277865 2.24469691,21.6710677 2.25312714,21.6122483 C2.28474052,21.3958767 2.20254575,21.1753038 2.06976959,21.0030469 C1.87587424,20.6942448 1.53444982,20.4883767 1.142444,20.4883767 C1.02231319,20.4883767 0.908505051,20.5114844 0.801019586,20.5471962 C1.12136842,19.9821094 2.01497307,19.0599045 4.27006028,19.0599045 C4.27006028,19.0599045 5.80014749,18.9926823 8.13321435,20.0241233 C8.18168819,20.0451302 8.42194982,20.1543663 8.76758935,20.2657031 C8.86453703,20.2972135 8.97202249,20.328724 9.09004575,20.3602344 C9.33452249,20.4253559 10.023694,20.5598003 10.9320516,20.5598003 C11.764537,20.5598003 12.9447696,20.2299913 13.8130835,19.8518663 C13.829944,19.8434635 13.8404818,19.8392621 13.848912,19.8350608 C14.8900457,19.3119878 15.7499295,18.589349 16.3084324,17.5516059 C16.6161359,16.9781163 16.8121388,16.5306684 16.8690428,16.3605121 C16.8964411,16.2785851 17.0755835,15.7387066 17.1367027,15.1316059 C17.1746388,14.759783 17.3495661,13.0624219 16.2789266,11.6087413 C15.6108306,10.703342 14.6898277,10.2033767 14.245133,9.96179687 C14.0786359,9.87146701 13.9374295,9.80214409 13.7540719,9.71811631 C13.2840864,9.4975434 12.7740574,9.31058159 11.6212231,8.87993923 C10.0089411,8.27914062 9.20385389,7.98084201 8.99731319,7.87370659 C8.68539459,7.71195312 5.401819,5.96837673 5.68844691,3.76684895 C5.84229866,2.58625868 6.95930447,1.7438802 7.82129575,1.40776909 C9.66751668,0.689331592 11.5727492,1.82790798 12.5253655,2.89296006 C12.7529818,3.14714409 13.3641737,3.99792534 13.3641737,4.70796006 C13.3641737,4.71216145 13.3620661,4.71636284 13.3620661,4.71846354 C13.3620661,5.19111979 12.9258016,5.7898177 12.9258016,7.03552951 C12.9258016,8.2098177 13.5707144,8.52072048 14.1966591,8.52072048 C14.845787,8.52072048 15.370569,8.01235243 15.370569,7.38214409 C15.370569,6.75403645 14.845787,6.2435677 14.1966591,6.2435677 C13.882633,6.2435677 13.5960051,6.36540798 13.3852492,6.56077256 C13.3852492,6.55026909 13.3852492,6.54186631 13.3852492,6.53136284 C13.3852492,5.98728298 14.1165719,4.70165798 15.3726766,3.57988715 C15.7920806,3.20386284 18.9133742,0.704036453 19.2737667,0.475060758 L19.2716591,0.47085937 C19.3243481,0.428845481 19.3686068,0.361623258 19.3686068,0.279696175 Z" id="Path"></path>
                </g>
                <path d="M14.9404797,26.62 C15.1132994,26.5968924 15.2861192,26.5863889 15.4610465,26.5842882 C15.6886628,26.5842882 15.912064,26.6010938 16.1291424,26.6284028 C17.2440407,26.4372396 18.2367006,25.6977951 18.5528343,24.5340104 C18.8226017,23.5445833 18.6835029,22.4102083 17.8510174,21.8535243 C17.347311,21.5153125 16.293532,21.1539931 15.7034157,21.5090104 C15.4336483,21.6707639 14.9088663,22.0446875 14.9088663,22.660191 C14.9088663,23.2105729 15.3050872,23.5214757 15.5706395,23.5865972 C17.1955669,23.9878299 16.5801599,25.0969965 16.1038517,25.0969965 C15.0880087,25.0969965 14.0869186,24.6285417 13.7307413,23.5109722 C13.3766715,22.3997049 13.7539244,21.3430556 14.7866279,20.6561285 C15.3577762,20.2759028 15.9373547,19.9082812 16.5148256,19.5406597 C16.6644622,19.4461285 16.8162064,19.3494965 16.965843,19.2549653 L18.8162791,18.0911806 L19.6677326,17.5555035 L21.2273256,16.5744792 L21.3010901,16.5282639 L21.3010901,16.5303646 C22.059811,16.0619097 22.5635174,15.227934 22.5635174,14.2742187 C22.5635174,14.2090972 22.5593023,14.1460764 22.5550872,14.0830556 L18.5802326,16.5807812 L18.3526163,16.7236285 L17.9563953,16.9715104 L16.5232558,17.8790104 C15.7223837,18.3999826 15.1238372,18.8201215 14.2492006,19.4125174 C11.7369913,21.1224826 11.3787064,23.9311111 13.3176599,25.788125 C13.7876453,26.2397743 14.3524709,26.5107639 14.9404797,26.62 Z" id="XMLID_105_"></path>
                <path d="M23.4044331,42.7386285 C22.5319041,42.1441319 21.93125,41.7239931 21.1303779,41.2051215 L19.6972384,40.2976215 L19.3010174,40.0497396 L19.0734012,39.9068924 L15.0985465,37.407066 C15.0943314,37.4700868 15.0880087,37.5331076 15.0880087,37.5982292 C15.0880087,38.5519444 15.5938227,39.3859201 16.350436,39.8564757 L16.350436,39.854375 L16.4242006,39.9005903 L17.9837936,40.8816146 L18.8352471,41.4172917 L20.6856831,42.5789757 C20.8353198,42.6735069 20.987064,42.7701389 21.1367006,42.8646701 C21.7162791,43.2322917 22.2958576,43.6020139 22.8648983,43.9822396 C23.8976017,44.6691667 24.2748547,45.7279167 23.9207849,46.8370833 C23.5625,47.9546528 22.5635174,48.4231076 21.5476744,48.4231076 C21.0713663,48.4231076 20.4559593,47.3118403 22.0808866,46.9127083 C22.346439,46.8475868 22.7426599,46.5345833 22.7426599,45.9842014 C22.7426599,45.3686979 22.2178779,44.996875 21.9481105,44.8351215 C21.3579942,44.4801042 20.3042151,44.8393229 19.8005087,45.1796354 C18.9701308,45.7363194 18.831032,46.8727951 19.1007994,47.8601215 C19.6930233,50.0322396 22.6478198,50.7338715 24.3359738,49.1163368 C26.2749273,47.2572222 25.91875,44.4485937 23.4044331,42.7386285 Z" id="XMLID_104_"></path>
                <path d="M19.0755087,14.7384722 L19.303125,14.595625 L19.6993459,14.3477431 L21.1324855,13.4402431 C21.9333576,12.9192708 22.5319041,12.5012326 23.4065407,11.9067361 C25.91875,10.1967708 26.2770349,7.38814236 24.3380814,5.53112847 C22.6499273,3.91359375 19.6951308,4.61522569 19.102907,6.78734375 C18.8331395,7.77467014 18.9722384,8.90904514 19.8026163,9.46782986 C20.3063227,9.80814236 21.3601017,10.1673611 21.950218,9.81234375 C22.2199855,9.65059028 22.7447674,9.27666667 22.7447674,8.66326389 C22.7447674,8.11288194 22.3485465,7.80197917 22.0829942,7.73475694 C20.4580669,7.33352431 21.0734738,6.22435764 21.549782,6.22435764 C22.565625,6.22435764 23.5646076,6.6928125 23.9228924,7.81038194 C24.2769622,8.92164931 23.8997093,9.97829861 22.8670058,10.6652257 C22.2958576,11.0454514 21.7183866,11.4130729 21.1388081,11.7806944 C20.9891715,11.8752257 20.8374273,11.9718576 20.6877907,12.0663889 L18.8373547,13.2301736 L17.9859012,13.7658507 L16.4263081,14.746875 L16.3525436,14.7930903 L16.3525436,14.7909896 C15.5959302,15.2594444 15.0901163,16.0934201 15.0901163,17.0471354 C15.0901163,17.1122569 15.0943314,17.1731771 15.1006541,17.2382986 L19.0755087,14.7384722 Z" id="XMLID_103_"></path>
                <path d="M17.9585029,37.6675521 L18.3547238,37.915434 L18.5823401,38.0582812 L22.5571948,40.5560069 C22.5614099,40.4929861 22.565625,40.4299653 22.565625,40.3648437 C22.565625,39.4111285 22.059811,38.5771528 21.3031977,38.1086979 L21.3031977,38.1086979 L21.2294331,38.0624826 L19.6698401,37.0814583 L18.8183866,36.5457812 L16.9679506,35.3819965 C16.818314,35.2874653 16.6665698,35.1908333 16.5169331,35.0963021 C15.9373547,34.7286806 15.3577762,34.361059 14.7887355,33.9808333 C13.756032,33.2939062 13.3787791,32.2351562 13.7328488,31.1259896 C14.0911337,30.0084201 15.0901163,29.5399653 16.1059593,29.5399653 C16.5822674,29.5399653 17.1976744,30.6512326 15.5727471,31.0503646 C15.3071948,31.1154861 14.9109738,31.4263889 14.9109738,31.9788715 C14.9109738,32.5922743 15.4357558,32.9661979 15.7055233,33.1279514 C16.2956395,33.4829687 17.3494186,33.1216493 17.853125,32.7834375 C18.6835029,32.2267535 18.8226017,31.0902778 18.5549419,30.1029514 C18.2388081,28.9412674 17.2440407,28.1997222 16.13125,28.008559 C15.912064,28.0358681 15.6907703,28.0526736 15.4631541,28.0505729 C15.2882267,28.0505729 15.115407,28.0379687 14.9425872,28.0169618 C14.356686,28.1261979 13.7897529,28.3971875 13.321875,28.8446354 C11.3850291,30.7016493 11.7412064,33.5102778 14.2534157,35.2202431 C15.1280523,35.8147396 15.7265988,36.2348785 16.5274709,36.75375 L17.9585029,37.6675521 Z" id="XMLID_102_"></path>
                <path d="M43.8414244,11.9025347 C44.7139535,12.4970312 45.3146076,12.9150694 46.1154797,13.4360417 L47.5486192,14.3435417 L47.9448401,14.5914236 L48.1724564,14.7342708 L52.147311,17.2340972 C52.1515262,17.1710764 52.1557413,17.1080556 52.1557413,17.042934 C52.1557413,16.0892187 51.6499273,15.2552431 50.893314,14.7867882 L50.893314,14.7888889 L50.8195494,14.7426736 L49.2599564,13.7616493 L48.4085029,13.2259722 L46.5580669,12.0621875 C46.4084302,11.9676562 46.256686,11.8710243 46.1070494,11.7764931 C45.5274709,11.4088715 44.9478924,11.04125 44.3788517,10.6610243 C43.3461483,9.97409722 42.9688953,8.91534722 43.3229651,7.80618056 C43.6791424,6.68861111 44.6802326,6.22015625 45.6960756,6.22015625 C46.1723837,6.22015625 46.7877907,7.32932292 45.1628634,7.73055556 C44.897311,7.79567708 44.5010901,8.10868056 44.5010901,8.6590625 C44.5010901,9.27456597 45.0279797,9.64638889 45.2956395,9.80814236 C45.8857558,10.1631597 46.9395349,9.80394097 47.4432413,9.46362847 C48.2736192,8.90694444 48.412718,7.77046875 48.1450581,6.78314236 C47.5528343,4.61102431 44.5980378,3.90729167 42.9098837,5.52692708 C40.9730378,7.38394097 41.3292151,10.1925694 43.8414244,11.9025347 Z" id="XMLID_101_"></path>
                <path d="M49.2894622,16.9736111 L48.8932413,16.7257292 L48.665625,16.5828819 L44.6907703,14.0851563 C44.6865552,14.1481771 44.6823401,14.2111979 44.6823401,14.2763194 C44.6823401,15.2300347 45.1881541,16.0640104 45.9447674,16.5324653 L45.9447674,16.5303646 L46.018532,16.5765799 L47.578125,17.5576042 L48.4295785,18.0932813 L50.2800145,19.257066 C50.4296512,19.3515972 50.5813953,19.4482292 50.731032,19.5427604 C51.3106105,19.9103819 51.890189,20.2780035 52.4592297,20.6582292 C53.4919331,21.3451563 53.869186,22.4039063 53.5151163,23.5130729 C53.158939,24.6306424 52.1578488,25.0990972 51.1420058,25.0990972 C50.6656977,25.0990972 50.0502907,23.9899306 51.675218,23.5886979 C51.9407703,23.5235764 52.3369913,23.2105729 52.3369913,22.6622917 C52.3369913,22.0467882 51.8101017,21.6749653 51.5424419,21.5111111 C50.9523256,21.1560938 49.8985465,21.5174132 49.3948401,21.855625 C48.5644622,22.412309 48.4253634,23.5487847 48.6930233,24.5361111 C49.009157,25.6977951 50.0039244,26.4393403 51.1188227,26.6305035 C51.3380087,26.6031944 51.5593023,26.5863889 51.7869186,26.5863889 C51.9618459,26.5863889 52.1346657,26.5989931 52.3074855,26.6221007 C52.8933866,26.5128646 53.4603198,26.241875 53.9281977,25.7923264 C55.8671512,23.9353125 55.5088663,21.1287847 52.996657,19.4167188 C52.1220203,18.8222222 51.5234738,18.404184 50.7226017,17.8832118 L49.2894622,16.9736111 Z" id="XMLID_100_"></path>
                <path d="M29.9842297,9.63168403 L37.265843,9.63168403 C37.15625,9.11911458 37.103561,8.59814236 37.103561,8.07086806 C37.103561,7.22428819 37.246875,6.38190972 37.5250727,5.58784722 L34.9643895,6.78314236 L33.6260901,3.64680556 L32.2877907,6.78314236 L29.7271076,5.58784722 C30.0053052,6.38190972 30.1486192,7.22428819 30.1486192,8.07086806 C30.1465116,8.59814236 30.0917151,9.11911458 29.9842297,9.63168403 Z" id="XMLID_99_"></path>
                <path d="M52.3074855,28.0211632 C52.1346657,28.0421701 51.9618459,28.0547743 51.7869186,28.0547743 C51.5593023,28.0547743 51.3359012,28.0379688 51.1188227,28.0127604 C50.0039244,28.2039236 49.0112645,28.9433681 48.6930233,30.1071528 C48.4232558,31.0965799 48.5623547,32.2309549 49.3948401,32.7876389 C49.8985465,33.1258507 50.9523256,33.4871701 51.5424419,33.1321528 C51.8122093,32.9703993 52.3369913,32.5964757 52.3369913,31.9830729 C52.3369913,31.432691 51.9407703,31.1217882 51.675218,31.054566 C50.0502907,30.655434 50.6678052,29.5441667 51.1420058,29.5441667 C52.1578488,29.5441667 53.158939,30.0126215 53.5151163,31.130191 C53.8712936,32.2414583 53.4919331,33.2981076 52.4592297,33.9850347 C51.8880814,34.3652604 51.3085029,34.7328819 50.731032,35.1005035 C50.5813953,35.1950347 50.4296512,35.2916667 50.2800145,35.3861979 L48.4295785,36.5499826 L47.578125,37.0856597 L46.018532,38.066684 L45.9447674,38.1128993 L45.9447674,38.1128993 C45.1881541,38.5813542 44.6823401,39.4153299 44.6823401,40.3690451 C44.6823401,40.4341667 44.6865552,40.4971875 44.6907703,40.5602083 L48.665625,38.0624826 L48.8932413,37.9196354 L49.2894622,37.6717535 L50.7226017,36.7642535 C51.5234738,36.2432813 52.1220203,35.8231424 52.996657,35.2307465 C55.5109738,33.5207813 55.8671512,30.7121528 53.9281977,28.8551389 C53.4603198,28.4013889 52.8933866,28.1325 52.3074855,28.0211632 Z" id="XMLID_98_"></path>
                <path d="M43.3651163,40.3669444 C43.3651163,38.946875 44.1175145,37.7032639 45.2429506,37.0016319 L45.2429506,37.0016319 L45.2450581,36.9995313 L46.4105378,36.2663889 L47.3315407,35.7391146 L47.3315407,18.9377604 L46.4105378,18.3726736 L45.2450581,17.6395313 L45.2429506,17.6374306 L45.2429506,17.6374306 C44.115407,16.9357986 43.3651163,15.6921875 43.3651163,14.2721181 C43.3651163,14.0578472 43.3861919,13.8477778 43.4199128,13.6440104 L23.8280523,13.6440104 C23.8617733,13.8477778 23.8828488,14.0578472 23.8828488,14.2721181 C23.8828488,15.6921875 23.1304506,16.9357986 22.0050145,17.6374306 L22.002907,17.6395313 L20.8374273,18.3726736 L19.9164244,18.9377604 L19.9164244,35.7391146 L20.8374273,36.2663889 L22.002907,36.9995313 L22.0050145,37.0016319 L22.0050145,37.0016319 C23.1325581,37.7032639 23.8828488,38.946875 23.8828488,40.3669444 C23.8828488,40.6694444 23.8428052,40.961441 23.7795785,41.242934 L30.9874273,45.4884375 C31.318314,45.0725 31.7166424,44.7027778 32.1739826,44.3960764 L29.0358285,42.6146875 L26.1463663,41.0076563 C26.6268895,40.8185938 27.0231105,40.4551736 27.2507267,39.9867188 L33.6345203,43.5621007 L40.6590116,39.6190972 C40.8697674,37.3293403 42.283939,35.3189757 44.6043605,34.0081424 L44.6043605,20.3284201 C44.1491279,20.0700347 43.6770349,19.7444271 43.2239099,19.3578993 C43.3103198,19.2906771 43.3777616,19.2402604 43.4156977,19.2150521 L44.2692587,18.6667708 L44.4884448,18.5407292 C44.8804506,18.8390278 45.2766715,19.0827083 45.637064,19.2591667 L46.0353924,19.4566319 L46.0353924,34.8715278 L45.6454942,35.0710938 C44.5959302,35.6046701 42.1469477,37.1612847 42.0647529,40.0728472 L42.0521076,40.4782813 L39.2743459,42.0222917 L35.090843,44.3981771 C35.5418605,44.7048785 35.9317587,45.0746007 36.2584302,45.4884375 L43.4683866,41.242934 C43.4030523,40.961441 43.3651163,40.6694444 43.3651163,40.3669444 Z M42.0710756,17.2256944 C41.9172238,17.3328299 41.7718023,17.4399653 41.6305959,17.545 C41.3987645,17.1794792 41.1943314,16.7908507 41.034157,16.3749132 L26.2138081,16.3749132 C25.5077762,18.198316 24.0008721,19.5616667 22.6436047,20.3305208 L22.6436047,34.0102431 C23.6067587,34.5543229 24.4139535,35.2181424 25.0441134,35.9743924 C24.6795058,36.2621875 24.3317587,36.5394792 24.0071948,36.9743229 C23.2042151,35.9848958 22.1862645,35.3714931 21.6024709,35.0731944 L21.2125727,34.8736285 L21.2125727,19.4587326 L21.6109012,19.2612674 C22.8501453,18.652066 24.4856105,17.290816 25.0125,15.4632118 L25.1621366,14.946441 L42.0900436,14.946441 L42.2396802,15.4632118 C42.3703488,15.9127604 42.5663517,16.3328993 42.8066134,16.7215278 L42.0710756,17.2256944 Z" id="XMLID_95_"></path>
                <path d="M48.1724564,39.9047917 L47.9448401,40.0476389 L47.5486192,40.2955208 L46.1154797,41.2030208 C45.3146076,41.7239931 44.716061,42.1441319 43.8414244,42.7365278 C41.3292151,44.4464931 40.9709302,47.2551215 42.9098837,49.1121354 C44.5980378,50.7296701 47.5528343,50.0280382 48.1450581,47.8559201 C48.4148256,46.8664931 48.2757267,45.7321181 47.4432413,45.175434 C46.9395349,44.8351215 45.8857558,44.4759028 45.2956395,44.8309201 C45.0258721,44.9926736 44.5010901,45.3665972 44.5010901,45.98 C44.5010901,46.5303819 44.897311,46.8412847 45.1628634,46.9085069 C46.7877907,47.3076389 46.1723837,48.4189063 45.6960756,48.4189063 C44.6802326,48.4189063 43.6791424,47.9504514 43.3229651,46.8328819 C42.9688953,45.7216146 43.3461483,44.6649653 44.3788517,43.9780382 C44.95,43.5978125 45.5295785,43.230191 46.1070494,42.8604688 C46.256686,42.7659375 46.4084302,42.6693056 46.5580669,42.5747743 L48.4085029,41.4130903 L49.2599564,40.8774132 L50.8195494,39.8963889 L50.893314,39.8501736 L50.893314,39.8522743 C51.6499273,39.3838194 52.1557413,38.5498437 52.1557413,37.5940278 C52.1557413,37.5289062 52.1515262,37.4679861 52.147311,37.4028646 L48.1724564,39.9047917 Z" id="XMLID_94_"></path>
                <path d="M29.834593,48.6919965 C29.8282703,48.778125 29.8240552,48.8642535 29.8240552,48.9524826 C29.8240552,49.3306076 29.8809593,49.6961285 29.9863372,50.0406424 C29.8746366,49.5931944 29.8261628,49.1415451 29.834593,48.6919965 Z" id="XMLID_93_" fill="#6D6767" fill-rule="nonzero"></path>
                <path d="M37.3838663,49.1016319 C37.3691134,49.3369097 37.3375,49.5721875 37.2890262,49.8053646 C37.3417151,49.5784896 37.3733285,49.3432118 37.3838663,49.1016319 Z" id="XMLID_92_" fill="#6D6767" fill-rule="nonzero"></path>
                <path d="M31.2909157,48.9524826 C31.2909157,49.1478472 31.3162064,49.3390104 31.3625727,49.5217708 C31.3225291,49.3159028 31.2993459,49.1100347 31.2930233,48.9062674 C31.2909157,48.9209722 31.2909157,48.9377778 31.2909157,48.9524826 Z" id="XMLID_91_" fill="#6D6767" fill-rule="nonzero"></path>
                <path d="M21.6087936,19.2612674 L21.2104651,19.4587326 L21.2104651,34.8736285 L21.6003634,35.0731944 C22.184157,35.3714931 23.2021076,35.9848958 24.0050872,36.9743229 C24.3296512,36.5394792 24.6773983,36.2621875 25.0420058,35.9743924 C24.4118459,35.2202431 23.6067587,34.5543229 22.6414971,34.0102431 L22.6414971,20.3305208 C24.0008721,19.5616667 25.5056686,18.198316 26.2117006,16.3749132 L41.034157,16.3749132 C41.1943314,16.78875 41.3987645,17.1794792 41.6305959,17.545 C41.7718023,17.4399653 41.9151163,17.3328299 42.0710756,17.2256944 L42.8045058,16.7215278 C42.5642442,16.3328993 42.3661337,15.9127604 42.2375727,15.4632118 L42.087936,14.946441 L25.1600291,14.946441 L25.0103924,15.4632118 C24.4835029,17.290816 22.8480378,18.652066 21.6087936,19.2612674 Z" id="XMLID_90_" fill="#6D6767" fill-rule="nonzero"></path>
                <path d="M27.9946948,5.19711806 C28.0600291,5.31685764 28.1190407,5.43869792 28.1738372,5.56473958 C28.527907,6.34829861 28.7133721,7.20748264 28.7133721,8.07296875 C28.7133721,8.60234375 28.6438227,9.12541667 28.508939,9.63378472 C28.4667878,9.7934375 28.418314,9.95309028 28.3635174,10.1106424 L28.0263081,11.0622569 L39.2195494,11.0622569 L38.8823401,10.1106424 C38.8275436,9.95309028 38.7790698,9.79553819 38.7369186,9.63378472 C38.6020349,9.12541667 38.5324855,8.60234375 38.5324855,8.07296875 C38.5324855,7.20748264 38.7179506,6.34829861 39.0720203,5.56473958 C39.1289244,5.44079861 39.187936,5.31895833 39.2511628,5.19711806 L40.7117006,3.00819444 L41.1837936,2.30026042 L40.7517442,2.50192708 L39.259593,3.19935764 L35.6978198,4.86310764 L34.4016715,1.82340278 L33.6239826,0 L32.8462936,1.82340278 L31.5501453,4.86310764 L27.9883721,3.19935764 L26.4962209,2.50192708 L26.0641715,2.30026042 L26.5362645,3.00819444 L27.9946948,5.19711806 Z M32.2856831,6.78314236 L33.6239826,3.64680556 L34.962282,6.78314236 L37.5229651,5.58784722 C37.2447674,6.38190972 37.1014535,7.22428819 37.1014535,8.07086806 C37.1014535,8.59814236 37.15625,9.11911458 37.2637355,9.63168403 L29.9821221,9.63168403 C30.0917151,9.11911458 30.1444041,8.59814236 30.1444041,8.07086806 C30.1444041,7.22428819 30.0010901,6.38190972 29.7228924,5.58784722 L32.2856831,6.78314236 Z" id="XMLID_87_" fill="#6D6767" fill-rule="nonzero"></path>
                <path d="M11.9266715,28.2732465 C11.9077035,28.2963542 11.890843,28.3194618 11.871875,28.3425694 C11.2986192,29.1450347 10.9319041,30.071441 10.8391715,31.0650694 C10.837064,31.1028819 10.8328488,31.1406944 10.8307413,31.1785069 C10.8244186,31.2688368 10.8202035,31.3591667 10.8202035,31.4515972 C10.8180959,31.5125174 10.8180959,31.5734375 10.8202035,31.6364583 C10.8476017,33.5775 11.9119186,35.2958681 13.5494913,36.3966319 L13.7012355,36.4932639 L13.7012355,36.4953646 L13.8993459,36.6214062 C13.8972384,36.629809 13.8951308,36.6382118 13.8930233,36.6466146 C13.8171512,36.9512153 13.7728924,37.2684201 13.7728924,37.5961285 C13.7728924,39.0182986 14.5252907,40.2619097 15.6507267,40.961441 L15.6507267,40.961441 L15.6528343,40.9635417 L16.818314,41.696684 L18.0385901,42.4634375 C18.8247093,42.9423958 19.6635174,43.436059 20.318968,43.8646007 C20.3042151,43.8667014 20.2915698,43.8688021 20.2789244,43.8709028 C18.2367006,44.1250868 17.347311,46.1270486 17.7287791,47.9777604 C18.1566134,50.0511458 19.9543605,51.3829861 22.1904797,51.376684 C23.5372093,51.3724826 24.8481105,50.7233681 25.7248547,49.6898264 C25.7438227,49.6667188 25.7606831,49.6436111 25.7796512,49.6205035 C26.352907,48.8180382 26.7196221,47.8916319 26.8123547,46.8980035 C26.8144622,46.860191 26.8186773,46.8202778 26.8207849,46.7824653 C26.8271076,46.6921354 26.8313227,46.6018056 26.8313227,46.509375 C26.8334302,46.4484549 26.8334302,46.3875347 26.8313227,46.3245139 C26.8228924,45.6859028 26.6985465,45.0703993 26.481468,44.494809 L30.249782,46.7131424 C29.9842297,47.3349479 29.8409157,48.0071701 29.8282703,48.6898958 C29.8198401,49.1373438 29.868314,49.5910938 29.9800145,50.0385417 C30.45,51.5888542 31.8936773,52.7190278 33.6007994,52.7190278 C35.3922238,52.7190278 36.8949128,51.4712153 37.2827035,49.8032639 C37.3311773,49.5700868 37.3627907,49.334809 37.3775436,49.0995313 C37.4302326,48.2802604 37.2911337,47.465191 36.9771076,46.7194444 L40.7538517,44.494809 C40.5367733,45.0703993 40.4124273,45.6859028 40.4039971,46.3245139 C40.4039971,46.385434 40.4039971,46.4463542 40.4061047,46.509375 C40.4082122,46.5997049 40.4103198,46.6921354 40.4166424,46.7824653 C40.41875,46.8202778 40.4208576,46.860191 40.4250727,46.8980035 C40.5178052,47.8937326 40.8845203,48.8180382 41.4577762,49.6205035 C41.4767442,49.6436111 41.4936047,49.6667188 41.5125727,49.6898264 C42.3893169,50.7233681 43.6981105,51.3724826 45.0469477,51.376684 C47.2851744,51.3829861 49.0829215,50.0511458 49.5086483,47.9777604 C49.8901163,46.1270486 49.0007267,44.1271875 46.9585029,43.8709028 C46.9458576,43.8688021 46.9332122,43.8667014 46.9184593,43.8646007 C47.5760174,43.436059 48.412718,42.9402951 49.1988372,42.4634375 L50.4191134,41.696684 L51.584593,40.9635417 L51.5867006,40.961441 L51.5867006,40.961441 C52.7142442,40.259809 53.4645349,39.0161979 53.4645349,37.5961285 C53.4645349,37.2684201 53.4202762,36.9512153 53.3444041,36.6466146 C53.3422965,36.6382118 53.340189,36.629809 53.3380814,36.6214063 L53.5361919,36.4953646 L53.5361919,36.4932639 L53.687936,36.3966319 C55.3255087,35.2958681 56.3898256,33.5775 56.4172238,31.6364583 C56.4172238,31.5755382 56.4172238,31.5146181 56.4172238,31.4515972 C56.4151163,31.3591667 56.4130087,31.2688368 56.406686,31.1785069 C56.4045785,31.1406944 56.4024709,31.1028819 56.3982558,31.0650694 C56.3055233,30.0693403 55.9388081,29.1450347 55.3655523,28.3425694 C55.3465843,28.3194618 55.3297238,28.2963542 55.3107558,28.2732465 C54.9967297,27.9014236 54.6236919,27.5800174 54.2148256,27.3195313 C54.6236919,27.0590451 54.9946221,26.7397396 55.3107558,26.365816 C55.3297238,26.3427083 55.3465843,26.3196007 55.3655523,26.2964931 C55.9388081,25.4940278 56.3055233,24.5697222 56.3982558,23.5739931 C56.4003634,23.5361806 56.4045785,23.4962674 56.406686,23.4584549 C56.4130087,23.368125 56.4172238,23.2756944 56.4172238,23.1853646 C56.4193314,23.1244444 56.4193314,23.0635243 56.4172238,23.0005035 C56.3898256,21.0594618 55.3255087,19.3410937 53.687936,18.2403299 L53.5361919,18.1436979 L53.5361919,18.1415972 L53.3380814,18.0155556 C53.340189,18.0071528 53.3422965,17.99875 53.3444041,17.9903472 C53.4202762,17.6857465 53.4645349,17.3685417 53.4645349,17.0408333 C53.4645349,15.6186632 52.7121366,14.3771528 51.5867006,13.6755208 L51.5867006,13.6755208 L51.584593,13.6734201 L50.4191134,12.9402778 L49.1988372,12.1714236 C48.412718,11.694566 47.5739099,11.1988021 46.9184593,10.7702604 C46.9332122,10.7681597 46.9458576,10.7639583 46.9585029,10.7639583 C49.0007267,10.5097743 49.8901163,8.50991319 49.5086483,6.65710069 C49.080814,4.58371528 47.2830669,3.251875 45.0469477,3.25815482 C43.700218,3.26237847 42.3893169,3.91149306 41.5125727,4.94503472 C41.4936047,4.96814236 41.4767442,4.99125 41.4577762,5.01435764 C40.8845203,5.81682292 40.5178052,6.74112847 40.4250727,7.73685764 C40.4229651,7.77467014 40.41875,7.81458333 40.4166424,7.85239583 C40.4103198,7.94272569 40.4061047,8.03515625 40.4061047,8.12548611 C40.4039971,8.18640625 40.4039971,8.24732639 40.4039971,8.31034722 C40.4250727,9.80394097 41.0615552,11.1630903 42.0984738,12.2134375 L25.1326308,12.2134375 C26.1695494,11.1630903 26.806032,9.80184028 26.8271076,8.31034722 C26.8271076,8.24942708 26.8271076,8.18850694 26.8271076,8.12548611 C26.825,8.03515625 26.8228924,7.94272569 26.8165698,7.85239583 C26.8144622,7.81458333 26.8102471,7.77467014 26.8081395,7.73685764 C26.715407,6.74112847 26.3486919,5.81682292 25.775436,5.01435764 C25.756468,4.99125 25.7396076,4.96814236 25.7206395,4.94503472 C24.8438953,3.91149306 23.5329942,3.26237847 22.1862645,3.25815482 C19.9480378,3.251875 18.1502907,4.58371528 17.724564,6.65710069 C17.3430959,8.5078125 18.2324855,10.5076736 20.2747093,10.7639583 C20.2894622,10.766059 20.3021076,10.7681597 20.3147529,10.7702604 C19.6571948,11.1988021 18.8204942,11.694566 18.034375,12.1714236 L16.8140988,12.9402778 L15.6486192,13.6734201 L15.6465116,13.6755208 L15.6465116,13.6755208 C14.518968,14.3771528 13.7686773,15.6207639 13.7686773,17.0408333 C13.7686773,17.3685417 13.812936,17.6857465 13.8888081,17.9903472 C13.8909157,17.99875 13.8930233,18.0071528 13.8951308,18.0155556 L13.6970203,18.1415972 L13.6970203,18.1436979 L13.5452762,18.2403299 C11.9077035,19.3410937 10.8433866,21.0594618 10.8159884,23.0005035 C10.8159884,23.0614236 10.8159884,23.1223437 10.8159884,23.1853646 C10.8180959,23.2756944 10.8202035,23.368125 10.8265262,23.4584549 C10.8286337,23.4962674 10.8328488,23.5361806 10.8349564,23.5739931 C10.927689,24.5697222 11.2944041,25.4940278 11.8676599,26.2964931 C11.8866279,26.3196007 11.9034884,26.3427083 11.9224564,26.365816 C12.2364826,26.7376389 12.6095203,27.0590451 13.0183866,27.3195313 C12.6137355,27.5800174 12.2428052,27.9014236 11.9266715,28.2732465 Z M24.3380814,49.1142361 C22.6499273,50.7317708 19.6951308,50.0301389 19.102907,47.8580208 C18.8331395,46.8685937 18.9722384,45.7342187 19.8047238,45.1775347 C20.3084302,44.8372222 21.3622093,44.4780035 21.9523256,44.8330208 C22.222093,44.9947743 22.746875,45.3686979 22.746875,45.9821007 C22.746875,46.5324826 22.3506541,46.8433854 22.0851017,46.9106076 C20.4601744,47.3097396 21.0755814,48.4210069 21.5518895,48.4210069 C22.5677326,48.4210069 23.5667151,47.9525521 23.925,46.8349826 C24.2790698,45.7237153 23.9018169,44.667066 22.8691134,43.9801389 C22.2979651,43.5999132 21.7204942,43.2322917 21.1409157,42.8625694 C20.9912791,42.7680382 20.8395349,42.6714063 20.6898983,42.576875 L18.8394622,41.415191 L17.9880087,40.8795139 L16.4284157,39.8984896 L16.3546512,39.8522743 L16.3546512,39.854375 C15.5980378,39.3859201 15.0922238,38.5519444 15.0922238,37.5961285 C15.0922238,37.5310069 15.096439,37.4700868 15.1027616,37.4049653 L19.0776163,39.9047917 L19.3052326,40.0476389 L19.7014535,40.2955208 L21.134593,41.2030208 C21.9354651,41.7239931 22.5340116,42.1441319 23.4086483,42.7365278 C25.91875,44.4485938 26.2749273,47.2572222 24.3380814,49.1142361 Z M35.9212209,48.9524826 C35.9212209,50.2255035 34.8821948,51.2611458 33.6050145,51.2611458 C32.5259448,51.2611458 31.6154797,50.5196007 31.3604651,49.5217708 C31.3140988,49.3390104 31.2888081,49.1499479 31.2888081,48.9524826 C31.2888081,48.9356771 31.2888081,48.9209722 31.2909157,48.9041667 C31.2445494,47.4630903 32.0222384,46.0577257 33.387936,45.3665972 L33.6345203,45.2279514 L33.8368459,45.3434896 C35.1983285,46.0325174 35.9760174,47.4315799 35.9359738,48.8663542 C35.9275436,48.8915625 35.9212209,48.9188715 35.9212209,48.9524826 Z M50.893314,39.8522743 L50.893314,39.8522743 L50.8195494,39.8963889 L49.2599564,40.8774132 L48.4085029,41.4130903 L46.5580669,42.5747743 C46.4084302,42.6693056 46.256686,42.7659375 46.1070494,42.8604687 C45.5274709,43.2280903 44.9478924,43.5978125 44.3788517,43.9780382 C43.3461483,44.6649653 42.9688953,45.7237153 43.3229651,46.8328819 C43.6791424,47.9504514 44.6802326,48.4189062 45.6960756,48.4189062 C46.1723837,48.4189062 46.7877907,47.3076389 45.1628634,46.9085069 C44.897311,46.8433854 44.5010901,46.5303819 44.5010901,45.98 C44.5010901,45.3644965 45.0279797,44.9926736 45.2956395,44.8309201 C45.8857558,44.4759028 46.9395349,44.8351215 47.4432413,45.175434 C48.2736192,45.7321181 48.412718,46.8685937 48.1450581,47.8559201 C47.5528343,50.0280382 44.5980378,50.7296701 42.9098837,49.1121354 C40.9709302,47.2551215 41.3292151,44.4485937 43.8414244,42.7365278 C44.7139535,42.1420312 45.3146076,41.7218924 46.1154797,41.2030208 L47.5486192,40.2955208 L47.9448401,40.0476389 L48.1724564,39.9047917 L52.147311,37.4049653 C52.1515262,37.4679861 52.1557478,37.5310069 52.1557478,37.5961285 C52.1578488,38.5498437 51.6520349,39.3838194 50.893314,39.8522743 Z M52.996657,35.2244444 C52.1220203,35.818941 51.5234738,36.2390799 50.7226017,36.7579514 L49.2894622,37.6654514 L48.8932413,37.9133333 L48.665625,38.0561806 L44.6907703,40.5539062 C44.6865552,40.4908854 44.6823401,40.4278646 44.6823401,40.3627431 C44.6823401,39.4090278 45.1881541,38.5750521 45.9447674,38.1065972 L45.9447674,38.1065972 L46.018532,38.0603819 L47.578125,37.0793576 L48.4295785,36.5436806 L50.2800145,35.3798958 C50.4296512,35.2853646 50.5813953,35.1887326 50.731032,35.0942014 C51.3106105,34.7265799 51.890189,34.3589583 52.4592297,33.9787326 C53.4919331,33.2918056 53.869186,32.2330556 53.5151163,31.1238889 C53.158939,30.0063194 52.1578488,29.5378646 51.1420058,29.5378646 C50.6656977,29.5378646 50.0502907,30.6491319 51.675218,31.0482639 C51.9407703,31.1133854 52.3369913,31.4242882 52.3369913,31.9767708 C52.3369913,32.5901736 51.8101017,32.9640972 51.5424419,33.1258507 C50.9523256,33.4808681 49.8985465,33.1195486 49.3948401,32.7813368 C48.5644622,32.2246528 48.4253634,31.0881771 48.6930233,30.1008507 C49.009157,28.9391667 50.0039244,28.1976215 51.1188227,28.0064583 C51.3380087,28.0337674 51.5593023,28.0505729 51.7869186,28.0484722 C51.9618459,28.0484722 52.1346657,28.0358681 52.3074855,28.0148611 C52.8933866,28.1240972 53.4603198,28.3950868 53.9281977,28.8425347 C55.8671512,30.7058507 55.5109738,33.5144792 52.996657,35.2244444 Z M52.996657,19.4167187 C55.5109738,21.126684 55.8671512,23.9353125 53.9281977,25.7923264 C53.4603198,26.241875 52.8933866,26.5107639 52.3074855,26.6221007 C52.1346657,26.5989931 51.9618459,26.5884896 51.7869186,26.5863889 C51.5593023,26.5863889 51.3359012,26.6031944 51.1188227,26.6305035 C50.0039244,26.4393403 49.0112645,25.6998958 48.6930233,24.5361111 C48.4232558,23.546684 48.5623547,22.412309 49.3948401,21.855625 C49.8985465,21.5174132 50.9523256,21.1560937 51.5424419,21.5111111 C51.8122093,21.6728646 52.3369913,22.0467882 52.3369913,22.6622917 C52.3369913,23.2126736 51.9407703,23.5235764 51.675218,23.5886979 C50.0502907,23.9899306 50.6678052,25.0990972 51.1420058,25.0990972 C52.1578488,25.0990972 53.158939,24.6306424 53.5151163,23.5130729 C53.8712936,22.4018056 53.4919331,21.3451562 52.4592297,20.6582292 C51.8880814,20.2780035 51.3085029,19.9103819 50.731032,19.5427604 C50.5813953,19.4482292 50.4296512,19.3515972 50.2800145,19.257066 L48.4295785,18.0932812 L47.578125,17.5576042 L46.018532,16.5765799 L45.9447674,16.5303646 L45.9447674,16.5324653 C45.1881541,16.0640104 44.6823401,15.2300347 44.6823401,14.2763194 C44.6823401,14.2111979 44.6865552,14.1481771 44.6907703,14.0851562 L48.665625,16.5828819 L48.8932413,16.7257292 L49.2894622,16.9736111 L50.7226017,17.8811111 C51.5234738,18.4020833 52.1220203,18.8222222 52.996657,19.4167187 Z M42.9098837,5.52902778 C44.5980378,3.91149306 47.5528343,4.613125 48.1450581,6.78524306 C48.4148256,7.77256944 48.2757267,8.90694444 47.4432413,9.46572917 C46.9395349,9.80604167 45.8857558,10.1652604 45.2956395,9.81024306 C45.0258721,9.64848958 44.5010901,9.27456597 44.5010901,8.66116319 C44.5010901,8.11078125 44.897311,7.79987847 45.1628634,7.73265625 C46.7877907,7.33142361 46.1723837,6.22225694 45.6960756,6.22225694 C44.6802326,6.22225694 43.6791424,6.69071181 43.3229651,7.80828125 C42.9688953,8.91954861 43.3461483,9.97619792 44.3788517,10.663125 C44.95,11.0433507 45.5295785,11.4109722 46.1070494,11.7785937 C46.256686,11.873125 46.4084302,11.9697569 46.5580669,12.0642882 L48.4085029,13.2280729 L49.2599564,13.76375 L50.8195494,14.7447743 L50.893314,14.7909896 L50.893314,14.7888889 C51.6499273,15.2573437 52.1557413,16.0913194 52.1557413,17.0450347 C52.1557413,17.1101562 52.1515262,17.1710764 52.147311,17.2361979 L48.1724564,14.7363715 L47.9448401,14.5935243 L47.5486192,14.3456424 L46.1154797,13.4381424 C45.3146076,12.9171701 44.716061,12.4991319 43.8414244,11.9046354 C41.3292151,10.1925694 40.9730378,7.38394097 42.9098837,5.52902778 Z M43.4199128,13.6461111 C43.3861919,13.8498785 43.3651163,14.0599479 43.3651163,14.2742187 C43.3651163,15.6942882 44.1175145,16.9378993 45.2429506,17.6395312 L45.2429506,17.6395312 L45.2450581,17.6416319 L46.4105378,18.3747743 L47.3315407,18.9398611 L47.3315407,35.7412153 L46.4105378,36.2684896 L45.2450581,37.0016319 L45.2429506,37.0037326 L45.2429506,37.0037326 C44.115407,37.7053646 43.3651163,38.9489757 43.3651163,40.3690451 C43.3651163,40.6715451 43.4030523,40.9635417 43.4683866,41.2450347 L36.2584302,45.4905382 C35.9317587,45.0767014 35.5418605,44.7069792 35.090843,44.4002778 L39.2743459,42.0243924 L42.0521076,40.4803819 L42.0647529,40.0749479 C42.1490552,37.1633854 44.5959302,35.6067708 45.6454942,35.0731944 L46.0353924,34.8736285 L46.0353924,19.4587326 L45.637064,19.2612674 C45.274564,19.0827083 44.8804506,18.8411285 44.4884448,18.5428299 L44.2692587,18.6688715 L43.4156977,19.2171528 C43.3777616,19.2423611 43.3124273,19.2927778 43.2239099,19.36 C43.6770349,19.7465278 44.1491279,20.0721354 44.6043605,20.3305208 L44.6043605,34.0102431 C42.283939,35.3189757 40.8697674,37.331441 40.6590116,39.6211979 L33.6345203,43.5642014 L27.2507267,39.9888194 C27.0231105,40.4572743 26.6268895,40.8206944 26.1463663,41.0097569 L29.0358285,42.6167882 L32.1739826,44.3981771 C31.7166424,44.7048785 31.318314,45.0746007 30.9874273,45.4905382 L23.7795785,41.2450347 C23.8449128,40.9635417 23.8828488,40.6715451 23.8828488,40.3690451 C23.8828488,38.9489757 23.1304506,37.7053646 22.0050145,37.0037326 L22.0050145,37.0037326 L22.002907,37.0016319 L20.8374273,36.2684896 L19.9164244,35.7412153 L19.9164244,18.9398611 L20.8374273,18.3747743 L22.002907,17.6416319 L22.0050145,17.6395312 C23.1325581,16.9378993 23.8828488,15.6942882 23.8828488,14.2742187 C23.8828488,14.0599479 23.8617733,13.8498785 23.8280523,13.6461111 L43.4199128,13.6461111 Z M16.3525436,14.7888889 L16.3525436,14.7888889 L16.4263081,14.7447743 L17.9859012,13.76375 L18.8373547,13.2280729 L20.6877907,12.0642882 C20.8374273,11.9697569 20.9891715,11.873125 21.1388081,11.7785937 C21.7183866,11.4109722 22.2979651,11.0433507 22.8670058,10.663125 C23.8997093,9.97619792 24.2769622,8.91744792 23.9228924,7.80828125 C23.5646076,6.69071181 22.565625,6.22225694 21.549782,6.22225694 C21.0734738,6.22225694 20.4580669,7.33142361 22.0829942,7.73265625 C22.3485465,7.79777778 22.7447674,8.11078125 22.7447674,8.66116319 C22.7447674,9.27666667 22.2199855,9.64848958 21.950218,9.81024306 C21.3601017,10.1652604 20.3063227,9.80604167 19.8026163,9.46572917 C18.9722384,8.90904514 18.8331395,7.77256944 19.1007994,6.78524306 C19.6930233,4.613125 22.6478198,3.90939236 24.3359738,5.52902778 C26.2728198,7.38604167 25.9166424,10.1925694 23.4044331,11.9046354 C22.5319041,12.4991319 21.93125,12.9171701 21.1303779,13.4381424 L19.6972384,14.3456424 L19.3010174,14.5935243 L19.0734012,14.7363715 L15.0985465,17.2361979 C15.0943314,17.1731771 15.0880087,17.1101562 15.0880087,17.0450347 C15.0901163,16.0913194 15.5959302,15.2573437 16.3525436,14.7888889 Z M14.2513081,19.4167187 C15.1259448,18.8222222 15.7244913,18.404184 16.5253634,17.8832118 L17.9585029,16.9757118 L18.3547238,16.7278299 L18.5823401,16.5849826 L22.5571948,14.0872569 C22.5614099,14.1502778 22.5677326,14.2132986 22.5677326,14.2784201 C22.5677326,15.2321354 22.0619186,16.0661111 21.3053052,16.534566 L21.3053052,16.5324653 L21.2315407,16.5786806 L19.6719477,17.5597049 L18.8204942,18.0953819 L16.9700581,19.2591667 C16.8204215,19.3536979 16.6686773,19.4503299 16.5190407,19.5448611 C15.9394622,19.9124826 15.3598837,20.2801042 14.790843,20.6603299 C13.7581395,21.3472569 13.3808866,22.4060069 13.7349564,23.5151736 C14.0932413,24.6327431 15.0922238,25.1011979 16.1080669,25.1011979 C16.584375,25.1011979 17.199782,23.9920312 15.5748547,23.5907986 C15.3093023,23.5256771 14.9130814,23.2126736 14.9130814,22.6643924 C14.9130814,22.0488889 15.4378634,21.677066 15.7076308,21.5132118 C16.2977471,21.1581944 17.3515262,21.5195139 17.8552326,21.8577257 C18.6856105,22.4144097 18.8247093,23.5508854 18.5570494,24.5382118 C18.2409157,25.6998958 17.2461483,26.441441 16.1333576,26.6326042 C15.9141715,26.6052951 15.6928779,26.5884896 15.4652616,26.5884896 C15.2903343,26.5884896 15.1175145,26.6010937 14.9446948,26.6242014 C14.3587936,26.5149653 13.7918605,26.2439757 13.3239826,25.7944271 C11.380814,23.9353125 11.7369913,21.126684 14.2513081,19.4167187 Z M13.3176599,28.8488368 C13.7855378,28.4013889 14.3524709,28.1303993 14.9383721,28.0211632 C15.1111919,28.0421701 15.2840116,28.0547743 15.458939,28.0547743 C15.6865552,28.0547743 15.9099564,28.0379687 16.1270349,28.0127604 C17.2419331,28.2039236 18.234593,28.9433681 18.5507267,30.1071528 C18.8204942,31.0965799 18.6813953,32.2309549 17.8489099,32.7876389 C17.3452035,33.1258507 16.2914244,33.4871701 15.7013081,33.1321528 C15.4315407,32.9703993 14.9067587,32.5964757 14.9067587,31.9830729 C14.9067587,31.4305903 15.3029797,31.1217882 15.568532,31.054566 C17.1934593,30.655434 16.5780523,29.5441667 16.1017442,29.5441667 C15.0859012,29.5441667 14.084811,30.0126215 13.7286337,31.130191 C13.374564,32.2414583 13.7518169,33.2981076 14.7845203,33.9850347 C15.3556686,34.3652604 15.9352471,34.7328819 16.512718,35.1005035 C16.6623547,35.1950347 16.8140988,35.2916667 16.9637355,35.3861979 L18.8141715,36.5499826 L19.665625,37.0856597 L21.225218,38.066684 L21.2989826,38.1128993 L21.2989826,38.1128993 C22.0577035,38.5813542 22.5614099,39.4153299 22.5614099,40.3690451 C22.5614099,40.4341667 22.5571948,40.4971875 22.5508721,40.5602083 L18.5760174,38.0624826 L18.3484012,37.9196354 L17.9521802,37.6717535 L16.5190407,36.7642535 C15.7181686,36.2432813 15.1196221,35.8231424 14.2449855,35.2307465 C11.7369913,33.5144792 11.380814,30.7058507 13.3176599,28.8488368 Z" id="XMLID_75_" fill="#6D6767" fill-rule="nonzero"></path>
                <g id="Group" transform="translate(0.000000, 61.060885)" fill="#6D6767" fill-rule="nonzero">
                    <path d="M4.35210756,3.99762153 C5.65668605,4.64673611 6.21097384,5.37357639 6.20043605,6.46803819 C6.18357558,8.09397569 4.88742733,9.12751736 2.72928779,9.12751736 C1.48582849,9.12751736 0.569040698,8.7725 0.183357558,8.5834375 L0.183357558,6.65920139 C0.469985465,6.61088542 0.754505814,6.52475694 1.04113372,6.52475694 C1.07696221,6.85456597 1.15704942,7.22638889 1.26875,7.57930556 C1.62281977,7.69904514 2.04643895,7.789375 2.51431686,7.789375 C3.57020349,7.789375 4.2193314,7.35873264 4.22565407,6.66760417 C4.22986919,6.12772569 3.84207849,5.82102431 3.13815407,5.42399306 L1.8525436,4.69505208 C1.00319767,4.21399306 0.377252907,3.51446181 0.377252907,2.51873264 C0.377252907,1.06295139 1.65443314,0.0210069444 3.68822674,0.0210069444 C4.81787791,0.0210069444 5.69672965,0.352916667 5.80421512,0.411736111 L5.80632267,1.41166667 L5.80632267,2.41159722 C5.51969477,2.45991319 5.23517442,2.54604167 4.94854651,2.54604167 C4.91271802,2.20782986 4.8284157,1.82340278 4.71039244,1.46208333 C4.45327035,1.3990625 4.16031977,1.35704861 3.8462936,1.35704861 C2.87681686,1.35704861 2.25087209,1.76878472 2.25087209,2.3821875 C2.25087209,2.81282986 2.55436047,3.09642361 3.20138081,3.42203125 L4.35210756,3.99762153 Z" id="Path"></path>
                    <path d="M7.1994186,8.93005208 C7.15094477,8.64435764 7.06453488,8.36076389 7.06453488,8.07506944 C7.41860465,8.03725694 7.82325581,7.94692708 8.20050872,7.82088542 L8.20050872,1.31503472 C7.82747093,1.19739583 7.42914244,1.10706597 7.06453488,1.06925347 C7.06453488,0.783559028 7.15094477,0.499965278 7.19731105,0.214270833 L13.4293605,0.214270833 L13.4293605,2.50822917 C13.1427326,2.55654514 12.8582122,2.64267361 12.5715843,2.64267361 C12.5357558,2.31916667 12.4577762,1.95154514 12.3481831,1.60282986 L9.95399709,1.60282986 L9.95399709,4.01652778 L12.1606105,3.91149306 C12.3018169,4.26230903 12.2786337,4.70975694 12.0552326,5.18661458 L9.95399709,5.18661458 L9.95399709,7.54359375 L12.558939,7.54359375 C12.6769622,7.17177083 12.7675872,6.77473958 12.8055233,6.41131944 C13.0921512,6.41131944 13.3766715,6.49744792 13.6632994,6.54366319 L13.6632994,8.93005208 L7.1994186,8.93005208 L7.1994186,8.93005208 Z" id="Path"></path>
                    <path d="M14.7676599,8.93005208 C14.719186,8.64435764 14.6327762,8.36076389 14.6327762,8.07506944 C14.9868459,8.03725694 15.3914971,7.94692708 15.76875,7.82088542 L15.76875,1.31293403 C15.3957122,1.19529514 14.9973837,1.10496528 14.6327762,1.06715278 C14.6327762,0.781458333 14.719186,0.497864583 14.7655523,0.212170139 L15.76875,0.212170139 L18.525436,0.212170139 C18.5739099,0.497864583 18.6603198,0.781458333 18.6603198,1.06715278 C18.30625,1.10496528 17.9015988,1.19529514 17.5243459,1.32133681 L17.5243459,7.64442708 C18.0912791,7.59611111 18.8710756,7.53939236 19.4506541,7.53939236 L20.3737645,7.53939236 C20.4917878,7.16756944 20.5824128,6.77053819 20.6203488,6.40711806 C20.9069767,6.40711806 21.1914971,6.49324653 21.478125,6.53946181 L21.478125,8.92585069 L14.7676599,8.92585069 L14.7676599,8.93005208 Z" id="Path"></path>
                    <path d="M22.1883721,8.93005208 C22.1398983,8.64435764 22.0534884,8.36076389 22.0534884,8.07506944 C22.4075581,8.03725694 22.8122093,7.94692708 23.1894622,7.82088542 L23.1894622,1.31503472 C22.8164244,1.19739583 22.4180959,1.10706597 22.0534884,1.06925347 C22.0534884,0.783559028 22.1398983,0.499965278 22.1862645,0.214270833 L28.418314,0.214270833 L28.418314,2.50822917 C28.131686,2.55654514 27.8471657,2.64267361 27.5605378,2.64267361 C27.5247093,2.31916667 27.4467297,1.95154514 27.3371366,1.60282986 L24.9429506,1.60282986 L24.9429506,4.01652778 L27.149564,3.91149306 C27.2907703,4.26230903 27.2675872,4.70975694 27.044186,5.18661458 L24.9429506,5.18661458 L24.9429506,7.54359375 L27.5478924,7.54359375 C27.6659157,7.17177083 27.7565407,6.77473958 27.7944767,6.41131944 C28.0811047,6.41131944 28.365625,6.49744792 28.6522529,6.54366319 L28.6522529,8.93005208 L22.1883721,8.93005208 L22.1883721,8.93005208 Z" id="Path"></path>
                    <path d="M34.2520349,1.39065972 C32.6228924,1.39065972 31.4890262,2.73300347 31.4890262,4.67404514 C31.4890262,6.51845486 32.5132994,7.70114583 34.0476017,7.70114583 C35.3121366,7.70114583 36.3469477,6.89868056 36.3469477,6.89868056 C36.5956395,7.07303819 36.7515988,7.48057292 36.7958576,8.13178819 C36.7958576,8.13178819 35.5861192,9.12541667 33.750436,9.13592014 C31.2824855,9.15482639 29.6322674,7.40074653 29.634373,4.76227431 C29.6364826,1.90112847 31.5817587,0 34.1635174,0 C35.5186773,0 36.5345203,0.523072917 36.6398983,0.600798611 L36.6230378,1.72467014 L36.6230378,2.65527778 C36.3364099,2.70359375 36.0518895,2.78972222 35.7652616,2.78972222 C35.7273256,2.43680556 35.6367006,2.03347222 35.5165698,1.64694444 C35.1772529,1.51039931 34.7409884,1.39065972 34.2520349,1.39065972 Z" id="Path"></path>
                    <path d="M45.0532703,2.60065972 C44.7666424,2.64897569 44.4821221,2.73510417 44.1954942,2.73510417 C44.1575581,2.3821875 44.0669331,1.97885417 43.9404797,1.60282986 L42.0478924,1.60282986 L42.0478924,7.82928819 C42.4209302,7.94692708 42.8192587,8.03725694 43.1838663,8.07506944 C43.1838663,8.36076389 43.0974564,8.64435764 43.0510901,8.93005208 L39.2890988,8.93005208 C39.240625,8.64435764 39.1542151,8.36076389 39.1542151,8.07506944 C39.5082849,8.03725694 39.912936,7.94692708 40.290189,7.82088542 L40.290189,1.60072917 L38.3891715,1.60072917 C38.2711483,1.97255208 38.1805233,2.36958333 38.1425872,2.73300347 C37.8559593,2.73300347 37.571439,2.646875 37.284811,2.60065972 L37.284811,0.214270833 L45.0532703,0.214270833 L45.0532703,1.60072917 L45.0532703,2.60065972 Z" id="Path"></path>
                    <path d="M54.7079942,0.214270833 C54.756468,0.499965278 54.8428779,0.783559028 54.8428779,1.06925347 C54.4888081,1.10706597 54.084157,1.19739583 53.7069041,1.3234375 L53.7069041,5.23913194 C53.7069041,7.65913194 52.4023256,9.13802083 50.1050872,9.13802083 C47.8710756,9.13802083 46.5475291,7.73895833 46.5475291,5.23913194 L46.5475291,1.31503472 C46.1744913,1.19739583 45.7761628,1.10706597 45.4115552,1.06925347 C45.4115552,0.783559028 45.4979651,0.499965278 45.5443314,0.214270833 L49.3042151,0.214270833 C49.352689,0.499965278 49.4390988,0.783559028 49.4390988,1.06925347 C49.0850291,1.10706597 48.6803779,1.19739583 48.303125,1.3234375 L48.303125,5.24123264 C48.303125,6.69701389 49.0196948,7.75576389 50.2652616,7.75576389 C51.4792151,7.75576389 52.2948401,6.74953125 52.2948401,5.24123264 L52.2948401,1.31713542 C51.9218023,1.19949653 51.5234738,1.10916667 51.1588663,1.07135417 C51.1588663,0.785659722 51.2452762,0.502065972 51.2916424,0.216371528 L54.7079942,0.214270833 Z" id="Path"></path>
                    <path d="M66.3670058,7.90491319 C66.662064,7.98473958 66.9634448,8.04565972 67.2458576,8.07506944 C67.2458576,8.36076389 67.1594477,8.64435764 67.1130814,8.93005208 L63.690407,8.93005208 C63.6419331,8.64435764 63.5555233,8.36076389 63.5555233,8.07506944 C63.8547965,8.04355903 64.1898983,7.97423611 64.5144622,7.87760417 L64.1456395,2.60486111 C63.237282,4.61102431 62.4574855,6.67810764 61.7893895,8.80401042 C61.315189,8.90904514 60.8831395,8.92585069 60.4721657,8.8859375 C59.8588663,6.6928125 59.0790698,4.55220486 58.1180233,2.47041667 L57.6606831,7.84609375 C58.0168605,7.95532986 58.3941134,8.03935764 58.7418605,8.07506944 C58.7418605,8.36076389 58.6554506,8.64435764 58.6090843,8.93005208 L55.3950581,8.93005208 C55.3465843,8.64435764 55.2601744,8.36076389 55.2601744,8.07506944 C55.5446948,8.04565972 55.8608285,7.98053819 56.168532,7.89230903 L57.0199855,1.30663194 C56.6553779,1.19109375 56.2654797,1.10496528 55.9093023,1.06925347 C55.9093023,0.783559028 55.9957122,0.499965278 56.0420785,0.214270833 L57.0073401,0.214270833 C57.6375,0.214270833 58.3414244,0.1890625 58.9652616,0.123940972 C59.8420058,2.08388889 60.6555233,4.06064236 61.3763081,6.10461806 C62.0718023,3.96401042 62.8684593,2.02296875 63.7915698,0.214270833 L66.4850291,0.214270833 C66.5335029,0.499965278 66.6199128,0.783559028 66.6199128,1.06925347 C66.2721657,1.10706597 65.8759448,1.19319444 65.5050145,1.31503472 L66.3670058,7.90491319 Z" id="Path"></path>
                    <path d="M5.2162064,20.7380556 C5.44803779,20.7842708 5.71359012,20.8157813 5.90959302,20.824184 C5.90959302,20.920816 5.88008721,21.0174479 5.86322674,21.1140799 L4.0127907,21.1140799 C3.99593023,21.0174479 3.96642442,20.920816 3.96642442,20.824184 C4.15188953,20.8136806 4.42376453,20.7842708 4.65981105,20.7275521 L4.65981105,18.8705382 L1.76824128,18.8705382 L1.76824128,20.7380556 C2.00007267,20.7842708 2.265625,20.8157813 2.46162791,20.824184 C2.46162791,20.920816 2.43212209,21.0174479 2.41526163,21.1140799 L0.564825581,21.1140799 C0.547965116,21.0174479 0.518459302,20.920816 0.518459302,20.824184 C0.703924419,20.8136806 0.975799419,20.7842708 1.21395349,20.7275521 L1.21395349,16.6248958 C0.982122093,16.5786806 0.716569767,16.5471701 0.52056686,16.5387674 C0.52056686,16.4421354 0.550072674,16.3455035 0.56693314,16.2488715 L2.41736919,16.2488715 C2.43422965,16.3455035 2.46373547,16.4421354 2.46373547,16.5387674 C2.27827035,16.5492708 2.00639535,16.5786806 1.76824128,16.6353993 L1.76824128,18.425191 L4.65981105,18.425191 L4.65981105,16.6248958 C4.42797965,16.5786806 4.16242733,16.5471701 3.96642442,16.5387674 C3.96642442,16.4421354 3.99593023,16.3455035 4.0127907,16.2488715 L5.86322674,16.2488715 C5.88008721,16.3455035 5.90959302,16.4421354 5.90959302,16.5387674 C5.72412791,16.5492708 5.45225291,16.5786806 5.21409884,16.6353993 L5.21409884,20.7380556 L5.2162064,20.7380556 Z" id="Path"></path>
                    <path d="M11.2185351,18.5155208 C11.2206395,20.0868403 10.168968,21.202309 8.73793605,21.202309 C7.42492733,21.202309 6.52710443,20.2696007 6.52710443,18.8285243 C6.525,17.2446007 7.5872093,16.1543403 9.00981105,16.1543403 C10.3164971,16.156441 11.2164244,17.0702431 11.2185351,18.5155208 Z M7.10457849,18.8075174 C7.12354651,20.0154167 7.82747093,20.7611632 8.78640988,20.7611632 C9.85494186,20.7611632 10.6600291,19.841059 10.6389535,18.5365278 C10.6199855,17.3244271 9.91184593,16.5996875 8.95712209,16.5996875 C7.884375,16.5996875 7.08561047,17.5071875 7.10457849,18.8075174 Z" id="Shape"></path>
                    <path d="M15.8235465,17.3370312 C15.7265988,17.3538368 15.6296512,17.3832465 15.5327035,17.3832465 C15.5221657,17.1983854 15.4926599,16.9273958 15.4357558,16.6900174 L14.0110465,16.6900174 L14.0110465,20.7338542 C14.2428779,20.7800694 14.5084302,20.8115799 14.7044331,20.8199826 C14.7044331,20.9166146 14.6749273,21.0132465 14.6580669,21.1098785 L12.8076308,21.1098785 C12.7907703,21.0132465 12.7612645,20.9166146 12.7612645,20.8199826 C12.9467297,20.8094792 13.2186047,20.7800694 13.4567587,20.7233507 L13.4567587,16.6879167 L12.0215116,16.6879167 C11.9751453,16.9189931 11.943532,17.1836806 11.9351017,17.3790451 C11.8381541,17.3790451 11.7412064,17.3496354 11.6442587,17.3328299 L11.6442587,16.2446701 L15.8256541,16.2446701 L15.8256541,16.6879167 L15.8235465,17.3370312 Z" id="Path"></path>
                    <path d="M19.7773256,21.1140799 L16.3082849,21.1140799 C16.2914244,21.0174479 16.2619186,20.920816 16.2619186,20.824184 C16.4473837,20.8136806 16.7192587,20.7842708 16.9574128,20.7275521 L16.9574128,16.6248958 C16.7255814,16.5786806 16.4600291,16.5471701 16.2640262,16.5387674 C16.2640262,16.4421354 16.293532,16.3455035 16.3103924,16.2488715 L19.646657,16.2488715 L19.646657,17.3139236 C19.5497093,17.3307292 19.4527616,17.3601389 19.355814,17.3601389 C19.3473837,17.1815799 19.3178779,16.9231944 19.265189,16.6921181 L17.5117006,16.6921181 L17.5117006,18.4903125 L19.0270349,18.4630035 C19.0755087,18.5785417 19.0670785,18.7234896 18.9996366,18.8768403 L17.5117006,18.8768403 L17.5117006,20.6687326 L19.4021802,20.6687326 C19.4485465,20.4376562 19.4801599,20.1729687 19.4885901,19.9776042 C19.5855378,19.9776042 19.6824855,20.0070139 19.7794331,20.0238194 L19.7794331,20.6687326 L19.7773256,21.1140799 Z" id="Path"></path>
                    <path d="M20.4559593,21.1140799 C20.4390988,21.0174479 20.409593,20.920816 20.409593,20.824184 C20.5950581,20.8136806 20.8669331,20.7842708 21.1050872,20.7275521 L21.1050872,16.6248958 C20.8732558,16.5786806 20.6077035,16.5471701 20.4117006,16.5387674 C20.4117006,16.4421354 20.4412064,16.3455035 20.4580669,16.2488715 L21.1050872,16.2488715 L22.3085029,16.2488715 C22.3253634,16.3455035 22.3548692,16.4421354 22.3548692,16.5387674 C22.1694041,16.5492708 21.8975291,16.5786806 21.659375,16.6353993 L21.659375,20.7023437 C21.9207122,20.6897396 22.3590843,20.6708333 22.7531977,20.6708333 L23.6699855,20.6708333 C23.7163517,20.4397569 23.7479651,20.1750694 23.7563953,19.9797049 C23.853343,19.9797049 23.9502907,20.0091146 24.0472384,20.0259201 L24.0472384,21.1140799 L20.4559593,21.1140799 Z" id="Path"></path>
                    <path d="M26.6332122,18.5470313 C27.3097384,18.9041493 27.621657,19.2549653 27.621657,19.8263542 C27.621657,20.6708333 26.9219477,21.2044097 25.9082122,21.2044097 C25.1621366,21.2044097 24.5867733,20.9397222 24.4856105,20.8914062 L24.4856105,19.9565972 C24.5825581,19.9397917 24.6795058,19.9103819 24.7764535,19.9103819 C24.7848837,20.0742361 24.8101744,20.3053125 24.8544331,20.521684 C25.103125,20.6372222 25.4550872,20.7569618 25.8534157,20.7569618 C26.5236192,20.7569618 27.0083576,20.4166493 27.0083576,19.8956771 C27.0083576,19.4965451 26.7259448,19.2612674 26.2664971,19.0070833 L25.4909157,18.5785417 C24.9534884,18.2802431 24.6204942,17.9252257 24.6204942,17.4189583 C24.6204942,16.6774132 25.2738372,16.1648437 26.2496366,16.1648437 C26.8418605,16.1648437 27.2949855,16.3581076 27.421439,16.4316319 L27.421439,16.7320312 L27.421439,17.3769444 C27.3244913,17.39375 27.2275436,17.4231597 27.1305959,17.4231597 C27.1221657,17.2467014 27.0926599,16.9862153 27.0399709,16.7572396 C26.8481831,16.6816146 26.5931686,16.6122917 26.2875727,16.6122917 C25.6489826,16.6122917 25.2021802,16.9210937 25.2021802,17.3790451 C25.2021802,17.69625 25.4297965,17.9210243 25.8787064,18.1563021 L26.6332122,18.5470313 Z" id="Path"></path>
                    <path d="M34.1045058,20.7527604 C34.0834302,20.9292188 33.9590843,21.099375 33.7799419,21.1897049 L33.0022529,20.4355556 C32.6713663,20.8535938 32.1950581,21.1855035 31.5079942,21.1855035 C30.669186,21.1855035 30.0601017,20.7086458 30.0601017,19.9355903 C30.0601017,19.311684 30.4563227,18.9146528 31.0085029,18.5092188 C30.6101744,18.1352951 30.2350291,17.744566 30.2350291,17.1521701 C30.2350291,16.4043229 30.8209302,15.8833507 31.6407703,15.8833507 C32.4121366,15.8833507 32.915843,16.3455035 32.915843,17.0198264 C32.915843,17.7382639 32.3362645,18.0764757 31.7039971,18.4987153 L31.6787064,18.5176215 L33.0043605,19.7423264 C33.3289244,19.1037153 33.4174419,18.4125868 33.4174419,18.4125868 C33.5818314,18.4651042 33.693532,18.5995486 33.6977471,18.7592014 C33.6977471,18.7592014 33.6113372,19.3852083 33.2846657,20.0028125 L34.1045058,20.7527604 Z M31.303561,18.7844097 C30.8082849,19.1667361 30.5364099,19.4881424 30.5364099,19.9229861 C30.5364099,20.4691667 30.9684593,20.7947743 31.5438227,20.7947743 C32.0707122,20.7947743 32.4542878,20.5258854 32.7324855,20.1708681 L31.303561,18.7844097 Z M31.3878634,18.2382292 L31.5101017,18.1542014 C32.1086483,17.744566 32.4753634,17.4903819 32.4753634,16.9925174 C32.4753634,16.5429688 32.1781977,16.2677778 31.6934593,16.2677778 C31.137064,16.2677778 30.7577035,16.6269965 30.7577035,17.1479688 C30.7577035,17.5765104 31.0274709,17.8979167 31.3878634,18.2382292 Z" id="Shape"></path>
                    <path d="M36.9581395,16.2488715 C37.265843,16.2488715 37.8201308,16.2026267 38.1868459,16.2026267 C39.3354651,16.1984549 39.9888081,16.6417014 39.9888081,17.4252604 C39.9888081,18.1478993 39.4534884,18.5974479 38.7706395,18.7655035 C39.0530523,19.4860417 39.5251453,20.1771701 40.0731105,20.7569618 C40.2796512,20.7926736 40.5030523,20.8178819 40.671657,20.8262847 C40.671657,20.9229167 40.6421512,21.0195486 40.6252907,21.1161806 L39.603125,21.1161806 C39.0087936,20.4313542 38.5640988,19.6456944 38.2943314,18.8369271 L38.153125,18.8411285 C37.9107558,18.8411285 37.6683866,18.8117187 37.5124273,18.7865104 L37.5124273,20.7443576 C37.7400436,20.7884722 37.9950581,20.8178819 38.1868459,20.8262847 C38.1868459,20.9229167 38.1573401,21.0195486 38.1404797,21.1161806 L36.9581395,21.1161806 L36.3111192,21.1161806 C36.2942587,21.0195486 36.2647529,20.9229167 36.2647529,20.8262847 C36.450218,20.8157812 36.722093,20.7863715 36.9602471,20.7317535 L36.9602471,16.6290972 C36.7284157,16.5828819 36.4628634,16.5513715 36.2668605,16.5429687 C36.2668605,16.4463368 36.2963663,16.3497049 36.3132267,16.2530729 L36.9581395,16.2488715 Z M37.4892442,18.3957812 C37.6430959,18.425191 37.8960029,18.4672049 38.1383721,18.4651042 C38.9118459,18.4630035 39.4555959,18.074375 39.4555959,17.4882812 C39.4555959,16.9568056 39.006686,16.6311979 38.2121366,16.6353993 C38.0119186,16.6353993 37.4871366,16.6606076 37.4871366,16.6606076 L37.4871366,18.3957812 L37.4892442,18.3957812 Z" id="Shape"></path>
                    <path d="M44.4715843,21.1140799 L41.0025436,21.1140799 C40.9856831,21.0174479 40.9561773,20.920816 40.9561773,20.824184 C41.1416424,20.8136806 41.4135174,20.7842708 41.6516715,20.7275521 L41.6516715,16.6248958 C41.4198401,16.5786806 41.1542878,16.5471701 40.9582849,16.5387674 C40.9582849,16.4421354 40.9877907,16.3455035 41.0046512,16.2488715 L44.3409157,16.2488715 L44.3409157,17.3139236 C44.243968,17.3307292 44.1470203,17.3601389 44.0500727,17.3601389 C44.0416424,17.1815799 44.0121366,16.9231944 43.9594477,16.6921181 L42.2059593,16.6921181 L42.2059593,18.4903125 L43.7212936,18.4630035 C43.7697674,18.5785417 43.7613372,18.7234896 43.6938953,18.8768403 L42.2059593,18.8768403 L42.2059593,20.6687326 L44.096439,20.6687326 C44.1428052,20.4376562 44.1744186,20.1729687 44.1828488,19.9776042 C44.2797965,19.9776042 44.3767442,20.0070139 44.4736919,20.0238194 L44.4736919,20.6687326 L44.4715843,21.1140799 Z" id="Path"></path>
                    <path d="M47.325218,18.5470313 C48.0017442,18.9041493 48.3136628,19.2549653 48.3136628,19.8263542 C48.3136628,20.6708333 47.6139535,21.2044097 46.600218,21.2044097 C45.8541424,21.2044097 45.2787791,20.9397222 45.1776163,20.8914062 L45.1776163,19.9565972 C45.274564,19.9397917 45.3715116,19.9103819 45.4684593,19.9103819 C45.4768895,20.0742361 45.5021802,20.3053125 45.546439,20.521684 C45.7951308,20.6372222 46.147093,20.7569618 46.5454215,20.7569618 C47.215625,20.7569618 47.7003634,20.4166493 47.7003634,19.8956771 C47.7003634,19.4965451 47.4179506,19.2612674 46.9585029,19.0070833 L46.1829215,18.5785417 C45.6454942,18.2802431 45.3125,17.9252257 45.3125,17.4189583 C45.3125,16.6774132 45.965843,16.1648437 46.9416424,16.1648437 C47.5338663,16.1648437 47.9869913,16.3581076 48.1134448,16.4316319 L48.1134448,16.7320312 L48.1134448,17.3769444 C48.0164971,17.39375 47.9195494,17.4231597 47.8226017,17.4231597 C47.8141715,17.2467014 47.7846657,16.9862153 47.7319767,16.7572396 C47.540189,16.6816146 47.2851744,16.6122917 46.9795785,16.6122917 C46.3409884,16.6122917 45.894186,16.9210937 45.894186,17.3790451 C45.894186,17.69625 46.1218023,17.9210243 46.5707122,18.1563021 L47.325218,18.5470313 Z" id="Path"></path>
                    <path d="M53.6542183,18.5155208 C53.6563227,20.0868403 52.6046512,21.202309 51.1736192,21.202309 C49.8606105,21.202309 48.9627876,20.2696007 48.9627876,18.8285243 C48.9606831,17.2446007 50.0228924,16.1543403 51.4454942,16.1543403 C52.7521802,16.156441 53.6521076,17.0702431 53.6542183,18.5155208 Z M49.5402616,18.8075174 C49.5592297,20.0154167 50.2631541,20.7611632 51.222093,20.7611632 C52.290625,20.7611632 53.0957122,19.841059 53.0746366,18.5365278 C53.0556686,17.3244271 52.3475291,16.5996875 51.3928052,16.5996875 C50.3200581,16.5996875 49.5212936,17.5071875 49.5402616,18.8075174 Z" id="Shape"></path>
                    <path d="M54.971439,16.2488715 C55.2791424,16.2488715 55.8334302,16.2026267 56.2001453,16.2026267 C57.3487645,16.1984549 58.0021076,16.6417014 58.0021076,17.4252604 C58.0021076,18.1478993 57.4667878,18.5974479 56.783939,18.7655035 C57.0663517,19.4860417 57.5384448,20.1771701 58.0864099,20.7569618 C58.2929506,20.7926736 58.5163517,20.8178819 58.6849564,20.8262847 C58.6849564,20.9229167 58.6554506,21.0195486 58.6385901,21.1161806 L57.6164244,21.1161806 C57.022093,20.4313542 56.5773983,19.6456944 56.3076308,18.8369271 L56.1664244,18.8411285 C55.9240552,18.8411285 55.681686,18.8117187 55.5257267,18.7865104 L55.5257267,20.7443576 C55.753343,20.7884722 56.0083576,20.8178819 56.2001453,20.8262847 C56.2001453,20.9229167 56.1706395,21.0195486 56.1537791,21.1161806 L54.971439,21.1161806 L54.3244186,21.1161806 C54.3075581,21.0195486 54.2780523,20.9229167 54.2780523,20.8262847 C54.4635174,20.8157812 54.7353924,20.7863715 54.9735465,20.7317535 L54.9735465,16.6290972 C54.7417151,16.5828819 54.4761628,16.5513715 54.2801599,16.5429687 C54.2801599,16.4463368 54.3096657,16.3497049 54.3265262,16.2530729 L54.971439,16.2488715 Z M55.5046512,18.3957812 C55.6585029,18.425191 55.9114099,18.4672049 56.1537791,18.4651042 C56.9272529,18.4630035 57.4710029,18.074375 57.4710029,17.4882812 C57.4710029,16.9568056 57.022093,16.6311979 56.2275436,16.6353993 C56.0273256,16.6353993 55.5025436,16.6606076 55.5025436,16.6606076 L55.5025436,18.3957812 L55.5046512,18.3957812 Z" id="Shape"></path>
                    <path d="M62.9021802,17.3370312 C62.8052326,17.3538368 62.7082849,17.3832465 62.6113372,17.3832465 C62.6007994,17.1983854 62.5712936,16.9273958 62.5143895,16.6900174 L61.0896802,16.6900174 L61.0896802,20.7338542 C61.3215116,20.7800694 61.587064,20.8115799 61.7830669,20.8199826 C61.7830669,20.9166146 61.753561,21.0132465 61.7367006,21.1098785 L59.8862645,21.1098785 C59.8694041,21.0132465 59.8398983,20.9166146 59.8398983,20.8199826 C60.0253634,20.8094792 60.2972384,20.7800694 60.5353924,20.7233507 L60.5353924,16.6879167 L59.1001453,16.6879167 C59.0537791,16.9189931 59.0221657,17.1836806 59.0137355,17.3790451 C58.9167878,17.3790451 58.8198401,17.3496354 58.7228924,17.3328299 L58.7228924,16.2446701 L62.9042878,16.2446701 L62.9042878,16.6879167 L62.9021802,17.3370312 Z" id="Path"></path>
                    <path d="M65.5640262,18.5470313 C66.2405523,18.9041493 66.5524709,19.2549653 66.5524709,19.8263542 C66.5524709,20.6708333 65.8527616,21.2044097 64.8390262,21.2044097 C64.0929506,21.2044097 63.5175872,20.9397222 63.4164244,20.8914062 L63.4164244,19.9565972 C63.5133721,19.9397917 63.6103198,19.9103819 63.7072674,19.9103819 C63.7156977,20.0742361 63.7409884,20.3053125 63.7852471,20.521684 C64.033939,20.6372222 64.3859012,20.7569618 64.7842297,20.7569618 C65.4544331,20.7569618 65.9391715,20.4166493 65.9391715,19.8956771 C65.9391715,19.4965451 65.6567587,19.2612674 65.197311,19.0070833 L64.4217297,18.5785417 C63.8843023,18.2802431 63.5513081,17.9252257 63.5513081,17.4189583 C63.5513081,16.6774132 64.2046512,16.1648437 65.1804506,16.1648437 C65.7726744,16.1648437 66.2257994,16.3581076 66.3522529,16.4316319 L66.3522529,16.7320312 L66.3522529,17.3769444 C66.2553052,17.39375 66.1583576,17.4231597 66.0614099,17.4231597 C66.0529797,17.2467014 66.0234738,16.9862153 65.9707849,16.7572396 C65.7789971,16.6816146 65.5239826,16.6122917 65.2183866,16.6122917 C64.5797965,16.6122917 64.1329942,16.9210937 64.1329942,17.3790451 C64.1329942,17.69625 64.3606105,17.9210243 64.8095203,18.1563021 L65.5640262,18.5470313 Z" id="Path"></path>
                    <rect id="Rectangle" x="0" y="12.2911632" width="67.0772529" height="1"></rect>
                </g>
            </g>
        </g>
    </g>
</svg>