<?xml version="1.0" encoding="utf-8"?>
<!DOCTYPE svg PUBLIC "-//W3C//DTD SVG 1.1//EN" "http://www.w3.org/Graphics/SVG/1.1/DTD/svg11.dtd">
<svg xmlns="http://www.w3.org/2000/svg" xmlns:xlink="http://www.w3.org/1999/xlink" version="1.1" id="Layer_1" x="0px" y="0px" width="512" height="512" viewBox="0 0 512 1859" enable-background="new 0 0 512 1347" xml:space="preserve">
	<g id="plus-circle">
		<path transform="scale(1,-1) translate(0,-449)" d="M384 198V186C384 179.4 378.6 174 372 174H274V76C274 69.4 268.6 64 262 64H250C243.4 64 238 69.4 238 76V174H140C133.4 174 128 179.4 128 186V198C128 204.6 133.4 210 140 210H238V308C238 314.6 243.4 320 250 320H262C268.6 320 274 314.6 274 308V210H372C378.6 210 384 204.6 384 198zM504 192C504 55 393 -56 256 -56S8 55 8 192S119 440 256 440S504 329 504 192zM472 192C472 311.9 374.7 408 256 408C136.1 408 40 310.7 40 192C40 72.1 137.3 -24 256 -24C375.9 -24 472 73.3 472 192z"/>
	</g>
	<g id="minus-circle">
		<path transform="scale(1,-1) translate(0,-961)" d=" M140 174C133.4 174 128 179.4 128 186V198C128 204.6 133.4 210 140 210H372C378.6 210 384 204.6 384 198V186C384 179.4 378.6 174 372 174H140zM504 192C504 55 393 -56 256 -56S8 55 8 192S119 440 256 440S504 329 504 192zM472 192C472 311.9 374.7 408 256 408C136.1 408 40 310.7 40 192C40 72.1 137.3 -24 256 -24C375.9 -24 472 73.3 472 192z"/>
	</g>
	<g id="arrow-right">
		<path transform="scale(1,-1) translate(0,-1473)" d="M216.464 411.535c4.68652 4.68652 12.2842 4.68652 16.9697 0l211.052 -211.049c4.68555 -4.6875 4.68555 -12.2852 0 -16.9717l-211.052 -211.05c-4.68555 -4.68555 -12.2832 -4.68555 -16.9697 0l-7.07129 7.07031c-4.68555 4.68652 -4.68555 12.2852 0 16.9707 l178.494 178.494h-375.887c-6.62695 0 -12 5.37305 -12 12v10c0 6.62695 5.37305 12 12 12h375.887l-178.494 178.494c-4.68555 4.68652 -4.68555 12.2852 0 16.9707z"></path>
	</g>
	<g id="info-circle">
		<path transform="scale(1,-1) translate(0,-1985)" d="M256 40c118.621 0 216 96.075 216 216 0 119.291-96.61 216-216 216-119.244 0-216-96.562-216-216 0-119.203 96.602-216 216-216m0-32C119.043 8 8 119.083 8 256c0 136.997 111.043 248 248 248s248-111.003 248-248C504 119.083 392.957 8 256 8zm-36 344h12V232h-12c-6.627 0-12-5.373-12-12v-8c0-6.627 5.373-12 12-12h48c6.627 0 12 5.373 12 12v140h12c6.627 0 12 5.373 12 12v8c0 6.627-5.373 12-12 12h-72c-6.627 0-12-5.373-12-12v-8c0-6.627 5.373-12 12-12zm36-240c-17.673 0-32 14.327-32 32s14.327 32 32 32 32-14.327 32-32-14.327-32-32-32z"></path>
	</g>
</svg>



